<svg width="32" height="32" viewBox="0 0 32 32" fill="none" xmlns="http://www.w3.org/2000/svg">
  <!-- Background circle -->
  <circle cx="16" cy="16" r="16" fill="#06C755"/>
  
  <!-- Simplified LINE logo -->
  <path d="M16 6C22.6 6 28 10.2 28 15.5C28 18.2 26.8 20.6 24.9 22.4L25.8 26L21.4 23.9C19.9 24.4 18.2 24.8 17.4 24.8C20.2 24.8 22.5 22.8 22.5 20C22.5 17.2 20.2 15.2 17.4 15.2C14.6 15.2 12.3 17.2 12.3 20C12.3 22.8 14.6 24.8 17.4 24.8L16 26C9.4 26 4 21.8 4 16.5C4 11.2 9.4 7 16 7V6Z" fill="white"/>
</svg>